# xmcd
#
# Track frame offsets:
#	150
#	19322
#	33528
#	52371
#	72006
#	92660
#	111106
#	131476
#
# Disc length: 1950 seconds
#
# Revision: 0
# Processed by: cddbd v1.5.2PL0 Copyright (c) Steve Scherf et al.
# Submitted via: dBpowerAMP V4.0
#
DISCID=6e079c08
DTITLE=Nawal El Zoghbi - Khalas Sameht
DYEAR=2008
DGENRE=
TTITLE0=Laih Meshtaqalak
TTITLE1=Albi Esalo
TTITLE2=Khalas Sameht
TTITLE3=El Hawa We Amaylo
TTITLE4=Law Kan
TTITLE5=Tegi Menak
TTITLE6=Ma Tesal Alia
TTITLE7=Sho HalQalb
EXTD=music_market@hotmail.com
EXTT0=
EXTT1=
EXTT2=
EXTT3=
EXTT4=
EXTT5=
EXTT6=
EXTT7=
PLAYORDER=
